<mxfile host="app.diagrams.net" agent="Mozilla/5.0 (Windows NT 10.0; Win64; x64) AppleWebKit/537.36 (KHTML, like Gecko) Chrome/138.0.0.0 Safari/537.36" version="28.0.7">
  <diagram name="Page-1" id="j3x_Eu2utNRzSFVRq1p4">
    <mxGraphModel dx="1042" dy="657" grid="1" gridSize="10" guides="1" tooltips="1" connect="1" arrows="1" fold="1" page="1" pageScale="1" pageWidth="850" pageHeight="1100" math="0" shadow="0">
      <root>
        <mxCell id="0" />
        <mxCell id="1" parent="0" />
        <mxCell id="Pc9aBSkkmkpB3jaZjBiN-9" style="edgeStyle=orthogonalEdgeStyle;rounded=0;orthogonalLoop=1;jettySize=auto;html=1;entryX=0.25;entryY=0;entryDx=0;entryDy=0;" parent="1" source="Pc9aBSkkmkpB3jaZjBiN-1" target="Pc9aBSkkmkpB3jaZjBiN-3" edge="1">
          <mxGeometry relative="1" as="geometry" />
        </mxCell>
        <mxCell id="Pc9aBSkkmkpB3jaZjBiN-1" value="NEW USER&amp;nbsp;" style="rounded=0;whiteSpace=wrap;html=1;" parent="1" vertex="1">
          <mxGeometry x="370" y="180" width="120" height="60" as="geometry" />
        </mxCell>
        <mxCell id="Pc9aBSkkmkpB3jaZjBiN-12" style="edgeStyle=orthogonalEdgeStyle;rounded=0;orthogonalLoop=1;jettySize=auto;html=1;entryX=0.5;entryY=0;entryDx=0;entryDy=0;" parent="1" source="Pc9aBSkkmkpB3jaZjBiN-2" target="Pc9aBSkkmkpB3jaZjBiN-7" edge="1">
          <mxGeometry relative="1" as="geometry" />
        </mxCell>
        <mxCell id="Pc9aBSkkmkpB3jaZjBiN-2" value="HOME PAGE" style="rounded=0;whiteSpace=wrap;html=1;" parent="1" vertex="1">
          <mxGeometry x="270" y="280" width="120" height="60" as="geometry" />
        </mxCell>
        <mxCell id="Pc9aBSkkmkpB3jaZjBiN-13" style="edgeStyle=orthogonalEdgeStyle;rounded=0;orthogonalLoop=1;jettySize=auto;html=1;" parent="1" source="Pc9aBSkkmkpB3jaZjBiN-3" edge="1">
          <mxGeometry relative="1" as="geometry">
            <mxPoint x="620" y="380" as="targetPoint" />
          </mxGeometry>
        </mxCell>
        <mxCell id="Pc9aBSkkmkpB3jaZjBiN-3" value="LOGIN" style="rounded=0;whiteSpace=wrap;html=1;" parent="1" vertex="1">
          <mxGeometry x="470" y="280" width="120" height="60" as="geometry" />
        </mxCell>
        <mxCell id="Pc9aBSkkmkpB3jaZjBiN-17" value="" style="edgeStyle=orthogonalEdgeStyle;rounded=0;orthogonalLoop=1;jettySize=auto;html=1;entryX=0.583;entryY=-0.027;entryDx=0;entryDy=0;entryPerimeter=0;" parent="1" source="Pc9aBSkkmkpB3jaZjBiN-4" target="Pc9aBSkkmkpB3jaZjBiN-16" edge="1">
          <mxGeometry relative="1" as="geometry" />
        </mxCell>
        <mxCell id="Pc9aBSkkmkpB3jaZjBiN-4" value="PRODUCT PAGE" style="rounded=0;whiteSpace=wrap;html=1;" parent="1" vertex="1">
          <mxGeometry x="330" y="390" width="120" height="55" as="geometry" />
        </mxCell>
        <mxCell id="Pc9aBSkkmkpB3jaZjBiN-5" value="CONTACT US" style="rounded=0;whiteSpace=wrap;html=1;" parent="1" vertex="1">
          <mxGeometry x="170" y="390" width="120" height="50" as="geometry" />
        </mxCell>
        <mxCell id="Pc9aBSkkmkpB3jaZjBiN-6" value="REGISTER" style="rounded=0;whiteSpace=wrap;html=1;" parent="1" vertex="1">
          <mxGeometry x="540" y="385" width="120" height="60" as="geometry" />
        </mxCell>
        <mxCell id="Pc9aBSkkmkpB3jaZjBiN-7" value="CHECK OUT" style="rounded=0;whiteSpace=wrap;html=1;" parent="1" vertex="1">
          <mxGeometry x="10" y="385" width="120" height="55" as="geometry" />
        </mxCell>
        <mxCell id="Pc9aBSkkmkpB3jaZjBiN-10" style="edgeStyle=orthogonalEdgeStyle;rounded=0;orthogonalLoop=1;jettySize=auto;html=1;entryX=0.653;entryY=0.08;entryDx=0;entryDy=0;entryPerimeter=0;" parent="1" source="Pc9aBSkkmkpB3jaZjBiN-2" target="Pc9aBSkkmkpB3jaZjBiN-5" edge="1">
          <mxGeometry relative="1" as="geometry">
            <Array as="points">
              <mxPoint x="330" y="365" />
              <mxPoint x="248" y="365" />
            </Array>
          </mxGeometry>
        </mxCell>
        <mxCell id="Pc9aBSkkmkpB3jaZjBiN-14" style="edgeStyle=orthogonalEdgeStyle;rounded=0;orthogonalLoop=1;jettySize=auto;html=1;entryX=0.587;entryY=0.073;entryDx=0;entryDy=0;entryPerimeter=0;" parent="1" source="Pc9aBSkkmkpB3jaZjBiN-1" target="Pc9aBSkkmkpB3jaZjBiN-2" edge="1">
          <mxGeometry relative="1" as="geometry" />
        </mxCell>
        <mxCell id="Pc9aBSkkmkpB3jaZjBiN-15" style="edgeStyle=orthogonalEdgeStyle;rounded=0;orthogonalLoop=1;jettySize=auto;html=1;entryX=0.407;entryY=-0.029;entryDx=0;entryDy=0;entryPerimeter=0;" parent="1" source="Pc9aBSkkmkpB3jaZjBiN-2" target="Pc9aBSkkmkpB3jaZjBiN-4" edge="1">
          <mxGeometry relative="1" as="geometry" />
        </mxCell>
        <mxCell id="Pc9aBSkkmkpB3jaZjBiN-18" style="edgeStyle=orthogonalEdgeStyle;rounded=0;orthogonalLoop=1;jettySize=auto;html=1;" parent="1" source="Pc9aBSkkmkpB3jaZjBiN-16" edge="1">
          <mxGeometry relative="1" as="geometry">
            <mxPoint x="70" y="450" as="targetPoint" />
          </mxGeometry>
        </mxCell>
        <mxCell id="Pc9aBSkkmkpB3jaZjBiN-16" value="ADD TO CART" style="rounded=0;whiteSpace=wrap;html=1;" parent="1" vertex="1">
          <mxGeometry x="320" y="490" width="120" height="60" as="geometry" />
        </mxCell>
      </root>
    </mxGraphModel>
  </diagram>
</mxfile>
